<mxfile host="app.diagrams.net" modified="2023-04-23T04:58:43.309Z" agent="Mozilla/5.0 (Macintosh; Intel Mac OS X 10_15_7) AppleWebKit/537.36 (KHTML, like Gecko) Chrome/112.0.0.0 Safari/537.36" etag="gTM-oQJnyX3lTZTT_Bpc" version="21.2.1" type="device">
  <diagram name="Page-1" id="Bg0JcsRhiKe9nyr5AxZf">
    <mxGraphModel dx="2156" dy="713" grid="1" gridSize="10" guides="1" tooltips="1" connect="1" arrows="1" fold="1" page="1" pageScale="1" pageWidth="850" pageHeight="1100" math="0" shadow="0">
      <root>
        <mxCell id="0" />
        <mxCell id="1" parent="0" />
        <mxCell id="bD4m_cxbD3lMt66joX2l-9" value="" style="rounded=0;whiteSpace=wrap;html=1;" vertex="1" parent="1">
          <mxGeometry x="360" y="310" width="350" height="260" as="geometry" />
        </mxCell>
        <mxCell id="bD4m_cxbD3lMt66joX2l-4" value="" style="edgeStyle=orthogonalEdgeStyle;rounded=0;orthogonalLoop=1;jettySize=auto;html=1;" edge="1" parent="1" source="bD4m_cxbD3lMt66joX2l-1" target="bD4m_cxbD3lMt66joX2l-2">
          <mxGeometry relative="1" as="geometry" />
        </mxCell>
        <mxCell id="bD4m_cxbD3lMt66joX2l-8" value="Message&amp;nbsp;&lt;br&gt;Transformation" style="edgeLabel;html=1;align=center;verticalAlign=middle;resizable=0;points=[];" vertex="1" connectable="0" parent="bD4m_cxbD3lMt66joX2l-4">
          <mxGeometry x="0.1569" y="-1" relative="1" as="geometry">
            <mxPoint x="-7" y="15" as="offset" />
          </mxGeometry>
        </mxCell>
        <mxCell id="bD4m_cxbD3lMt66joX2l-1" value="EventBridge" style="sketch=0;points=[[0,0,0],[0.25,0,0],[0.5,0,0],[0.75,0,0],[1,0,0],[0,1,0],[0.25,1,0],[0.5,1,0],[0.75,1,0],[1,1,0],[0,0.25,0],[0,0.5,0],[0,0.75,0],[1,0.25,0],[1,0.5,0],[1,0.75,0]];outlineConnect=0;fontColor=#232F3E;gradientColor=#FF4F8B;gradientDirection=north;fillColor=#BC1356;strokeColor=#ffffff;dashed=0;verticalLabelPosition=bottom;verticalAlign=top;align=center;html=1;fontSize=12;fontStyle=0;aspect=fixed;shape=mxgraph.aws4.resourceIcon;resIcon=mxgraph.aws4.eventbridge;" vertex="1" parent="1">
          <mxGeometry x="90" y="320" width="68" height="68" as="geometry" />
        </mxCell>
        <mxCell id="bD4m_cxbD3lMt66joX2l-10" value="" style="edgeStyle=orthogonalEdgeStyle;rounded=0;orthogonalLoop=1;jettySize=auto;html=1;entryX=-0.006;entryY=0.174;entryDx=0;entryDy=0;entryPerimeter=0;" edge="1" parent="1" source="bD4m_cxbD3lMt66joX2l-2" target="bD4m_cxbD3lMt66joX2l-9">
          <mxGeometry relative="1" as="geometry" />
        </mxCell>
        <mxCell id="bD4m_cxbD3lMt66joX2l-2" value="SNS Topic" style="sketch=0;points=[[0,0,0],[0.25,0,0],[0.5,0,0],[0.75,0,0],[1,0,0],[0,1,0],[0.25,1,0],[0.5,1,0],[0.75,1,0],[1,1,0],[0,0.25,0],[0,0.5,0],[0,0.75,0],[1,0.25,0],[1,0.5,0],[1,0.75,0]];outlineConnect=0;fontColor=#232F3E;gradientColor=#FF4F8B;gradientDirection=north;fillColor=#BC1356;strokeColor=#ffffff;dashed=0;verticalLabelPosition=bottom;verticalAlign=top;align=center;html=1;fontSize=12;fontStyle=0;aspect=fixed;shape=mxgraph.aws4.resourceIcon;resIcon=mxgraph.aws4.sns;" vertex="1" parent="1">
          <mxGeometry x="260" y="320" width="68" height="68" as="geometry" />
        </mxCell>
        <mxCell id="bD4m_cxbD3lMt66joX2l-3" value="Lambda" style="sketch=0;points=[[0,0,0],[0.25,0,0],[0.5,0,0],[0.75,0,0],[1,0,0],[0,1,0],[0.25,1,0],[0.5,1,0],[0.75,1,0],[1,1,0],[0,0.25,0],[0,0.5,0],[0,0.75,0],[1,0.25,0],[1,0.5,0],[1,0.75,0]];outlineConnect=0;fontColor=#232F3E;gradientColor=#F78E04;gradientDirection=north;fillColor=#D05C17;strokeColor=#ffffff;dashed=0;verticalLabelPosition=bottom;verticalAlign=top;align=center;html=1;fontSize=12;fontStyle=0;aspect=fixed;shape=mxgraph.aws4.resourceIcon;resIcon=mxgraph.aws4.lambda;" vertex="1" parent="1">
          <mxGeometry x="370" y="330" width="38" height="38" as="geometry" />
        </mxCell>
        <mxCell id="bD4m_cxbD3lMt66joX2l-6" value="" style="edgeStyle=orthogonalEdgeStyle;rounded=0;orthogonalLoop=1;jettySize=auto;html=1;" edge="1" parent="1" target="bD4m_cxbD3lMt66joX2l-1">
          <mxGeometry relative="1" as="geometry">
            <mxPoint x="50" y="354" as="sourcePoint" />
          </mxGeometry>
        </mxCell>
        <mxCell id="bD4m_cxbD3lMt66joX2l-7" value="" style="sketch=0;outlineConnect=0;fontColor=#232F3E;gradientColor=none;fillColor=#B0084D;strokeColor=none;dashed=0;verticalLabelPosition=bottom;verticalAlign=top;align=center;html=1;fontSize=12;fontStyle=0;aspect=fixed;pointerEvents=1;shape=mxgraph.aws4.eventbridge_default_event_bus_resource;" vertex="1" parent="1">
          <mxGeometry x="140" y="300" width="48.57" height="33" as="geometry" />
        </mxCell>
        <mxCell id="bD4m_cxbD3lMt66joX2l-11" value="AWS Event&lt;br style=&quot;border-color: var(--border-color);&quot;&gt;e.g. EC2 Instance State Change" style="shape=document;whiteSpace=wrap;html=1;boundedLbl=1;" vertex="1" parent="1">
          <mxGeometry x="-70" y="314" width="120" height="80" as="geometry" />
        </mxCell>
        <mxCell id="bD4m_cxbD3lMt66joX2l-28" value="" style="edgeStyle=orthogonalEdgeStyle;rounded=0;orthogonalLoop=1;jettySize=auto;html=1;" edge="1" parent="1" source="bD4m_cxbD3lMt66joX2l-13" target="bD4m_cxbD3lMt66joX2l-26">
          <mxGeometry relative="1" as="geometry" />
        </mxCell>
        <mxCell id="bD4m_cxbD3lMt66joX2l-13" value="Slack" style="shape=image;html=1;verticalAlign=top;verticalLabelPosition=bottom;labelBackgroundColor=#ffffff;imageAspect=0;aspect=fixed;image=https://cdn2.iconfinder.com/data/icons/social-media-2285/512/1_Slack_colored_svg-128.png" vertex="1" parent="1">
          <mxGeometry x="530" y="490" width="48" height="48" as="geometry" />
        </mxCell>
        <mxCell id="bD4m_cxbD3lMt66joX2l-27" value="" style="edgeStyle=orthogonalEdgeStyle;rounded=0;orthogonalLoop=1;jettySize=auto;html=1;" edge="1" parent="1" source="bD4m_cxbD3lMt66joX2l-14" target="bD4m_cxbD3lMt66joX2l-25">
          <mxGeometry relative="1" as="geometry" />
        </mxCell>
        <mxCell id="bD4m_cxbD3lMt66joX2l-14" value="Twilio" style="shape=image;html=1;verticalAlign=top;verticalLabelPosition=bottom;labelBackgroundColor=#ffffff;imageAspect=0;aspect=fixed;image=https://cdn2.iconfinder.com/data/icons/css-vol-3/24/twilio-128.png" vertex="1" parent="1">
          <mxGeometry x="530" y="420" width="48" height="48" as="geometry" />
        </mxCell>
        <mxCell id="bD4m_cxbD3lMt66joX2l-24" value="" style="edgeStyle=orthogonalEdgeStyle;rounded=0;orthogonalLoop=1;jettySize=auto;html=1;" edge="1" parent="1" source="bD4m_cxbD3lMt66joX2l-15" target="bD4m_cxbD3lMt66joX2l-23">
          <mxGeometry relative="1" as="geometry" />
        </mxCell>
        <mxCell id="bD4m_cxbD3lMt66joX2l-15" value="Gmail" style="dashed=0;outlineConnect=0;html=1;align=center;labelPosition=center;verticalLabelPosition=bottom;verticalAlign=top;shape=mxgraph.weblogos.gmail" vertex="1" parent="1">
          <mxGeometry x="530" y="370" width="48.4" height="30" as="geometry" />
        </mxCell>
        <mxCell id="bD4m_cxbD3lMt66joX2l-17" value="" style="edgeStyle=orthogonalEdgeStyle;rounded=0;orthogonalLoop=1;jettySize=auto;html=1;" edge="1" parent="1" source="bD4m_cxbD3lMt66joX2l-16" target="bD4m_cxbD3lMt66joX2l-15">
          <mxGeometry relative="1" as="geometry">
            <Array as="points">
              <mxPoint x="426" y="390" />
            </Array>
          </mxGeometry>
        </mxCell>
        <mxCell id="bD4m_cxbD3lMt66joX2l-20" value="" style="edgeStyle=orthogonalEdgeStyle;rounded=0;orthogonalLoop=1;jettySize=auto;html=1;" edge="1" parent="1" source="bD4m_cxbD3lMt66joX2l-16" target="bD4m_cxbD3lMt66joX2l-13">
          <mxGeometry relative="1" as="geometry">
            <Array as="points">
              <mxPoint x="426" y="520" />
            </Array>
          </mxGeometry>
        </mxCell>
        <mxCell id="bD4m_cxbD3lMt66joX2l-22" value="" style="edgeStyle=orthogonalEdgeStyle;rounded=0;orthogonalLoop=1;jettySize=auto;html=1;" edge="1" parent="1" source="bD4m_cxbD3lMt66joX2l-16">
          <mxGeometry relative="1" as="geometry">
            <mxPoint x="530" y="445" as="targetPoint" />
          </mxGeometry>
        </mxCell>
        <mxCell id="bD4m_cxbD3lMt66joX2l-16" value="Courier" style="shape=image;verticalLabelPosition=bottom;labelBackgroundColor=default;verticalAlign=top;aspect=fixed;imageAspect=0;image=data:image/png,iVBORw0KGgoAAAANSUhEUgAAAFAAAABqCAYAAAAr8NZmAAAKq2lDQ1BJQ0MgUHJvZmlsZQAASImVlwdQU+kWx7970xstIQJSQm+CdAJICaEFUJAONkISIJQQA6GJDVlcwbWgIoKKoKsCCq5KkbUiim0RsIB1QRYBZV0s2FB5FxiCu2/ee/POzJnzy8n5/t/57txv5lwAKApcsTgJVgAgWZQmCfJ2Z0RERjFwgwANCIAK8IDE5aWKWYGB/gCxmfh3e38fQJPxjtmk1r///19NkS9I5QEABSIcw0/lJSN8GvEXPLEkDQDUASSvm5EmnuRWhGkSpEGEeyY5bppHJjlmitFgqiYkiI0wDQA8mcuVxAFAZiB5RjovDtEhuyFsIeILRQiLEXZJTk7hI3wCYSOkBsmRJ/WZMd/pxP1NM0amyeXGyXj6LFOG9xCmipO4Wf/n4/jflpwkndnDAHFyvMQnCIlKyDPrSUzxk7EoZlHADAv5U/VTHC/1CZ1hXio7aob5XA8/2dqkRf4zHCv04sh00jghMyxI9QyeYUlKkGyvWAmbNcNcyey+0sRQWT5ewJHpZ8eHhM9wujBs0QynJgb7zdawZXmJNEjWv0Dk7T67r5fs7Mmp351XyJGtTYsP8ZGdnTvbv0DEmtVMjZD1xhd4eM7WhMrqxWnusr3ESYGyekGStyyfmh4sW5uGvJCzawNlzzCB6xs4w4ANUkAS4hLAAP7ILw8A0gSZaZMHYaeIsyTCuPg0Bgu5YQIGR8Qzn8ewsrCyBmDyvk6/Dm/pU/cQot+YzW3QBsA5a2Ji4uxszq8DgFPnACA+nM0ZDgAgdwOAa7t5Ukn6dG7qLmEAEcgDGlAFmkAXGAEzYAXsgBNwA57AFwSAEBAJlgMeiAfJSOcZIAesB/mgEGwDu0ApKAcHwVFwHJwEjeAsuASugpugA9wDj0AvGAAvwSh4D8YhCMJBFIgKqUJakD5kCllBTMgF8oT8oSAoEoqG4iARJIVyoA1QIVQElUIVUBX0C3QGugRdhzqhB1AfNAy9gT7DKJgM02AN2ACeDzNhFuwHh8DL4Dh4JZwN58Fb4BK4Ej4GN8CX4JvwPbgXfgmPoQCKhKKjtFFmKCaKjQpARaFiURLUGlQBqhhViapFNaPaUHdQvagR1Cc0Fk1FM9BmaCe0DzoUzUOvRK9Bb0aXoo+iG9Ct6DvoPvQo+huGglHHmGIcMRxMBCYOk4HJxxRjDmPqMVcw9zADmPdYLJaONcTaY32wkdgE7CrsZuw+bB32IrYT248dw+FwqjhTnDMuAMfFpeHycXtwx3AXcF24AdxHPAmvhbfCe+Gj8CJ8Lr4YX40/j+/CD+LHCQoEfYIjIYDAJ2QRthIOEZoJtwkDhHGiItGQ6EwMISYQ1xNLiLXEK8THxLckEkmH5EBaTBKS1pFKSCdI10h9pE9kJbIJmU1eSpaSt5CPkC+SH5DfUigUA4obJYqSRtlCqaJcpjylfJSjypnLceT4cmvlyuQa5LrkXskT5PXlWfLL5bPli+VPyd+WH1EgKBgosBW4CmsUyhTOKHQrjClSFS0VAxSTFTcrViteVxxSwikZKHkq8ZXylA4qXVbqp6KoulQ2lUfdQD1EvUIdoGFphjQOLYFWSDtOa6eNKisp2yiHKWcqlymfU+6lo+gGdA49ib6VfpJ+n/55jsYc1hzBnE1zaud0zfmgMlfFTUWgUqBSp3JP5bMqQ9VTNVF1u2qj6hM1tJqJ2mK1DLX9alfURubS5jrN5c0tmHty7kN1WN1EPUh9lfpB9VvqYxqaGt4aYo09Gpc1RjTpmm6aCZo7Nc9rDmtRtVy0hFo7tS5ovWAoM1iMJEYJo5Uxqq2u7aMt1a7Qbtce1zHUCdXJ1anTeaJL1GXqxuru1G3RHdXT0luol6NXo/dQn6DP1I/X363fpv/BwNAg3GCjQaPBkKGKIccw27DG8LERxcjVaKVRpdFdY6wx0zjReJ9xhwlsYmsSb1JmctsUNrUzFZruM+2ch5nnME80r3JetxnZjGWWblZj1mdON/c3zzVvNH81X29+1Pzt89vmf7OwtUiyOGTxyFLJ0tcy17LZ8o2ViRXPqszqrjXF2st6rXWT9WsbUxuBzX6bHluq7ULbjbYttl/t7O0kdrV2w/Z69tH2e+27mTRmIHMz85oDxsHdYa3DWYdPjnaOaY4nHf9yMnNKdKp2GlpguECw4NCCfmcdZ65zhXOvC8Ml2uWAS6+rtivXtdL1mZuuG9/tsNsgy5iVwDrGeuVu4S5xr3f/wHZkr2Zf9EB5eHsUeLR7KnmGepZ6PvXS8YrzqvEa9bb1XuV90Qfj4+ez3aebo8Hhcao4o772vqt9W/3IfsF+pX7P/E38Jf7NC+GFvgt3LHy8SH+RaFFjAAjgBOwIeBJoGLgy8NfF2MWBi8sWPw+yDMoJagumBq8Irg5+H+IesjXkUahRqDS0JUw+bGlYVdiHcI/wovDeiPkRqyNuRqpFCiObonBRYVGHo8aWeC7ZtWRgqe3S/KX3lxkuy1x2fbna8qTl51bIr+CuOBWNiQ6Pro7+wg3gVnLHYjgxe2NGeWzebt5Lvht/J39Y4CwoEgzGOscWxQ7FOcftiBuOd40vjh8RsoWlwtcJPgnlCR8SAxKPJE4khSfVJeOTo5PPiJREiaLWFM2UzJROsak4X9y70nHlrpWjEj/J4VQodVlqUxoNGYxuSY2kP0j70l3Sy9I/ZoRlnMpUzBRl3soyydqUNZjtlf3zKvQq3qqWHO2c9Tl9q1mrK9ZAa2LWtKzVXZu3dmCd97qj64nrE9f/lmuRW5T7bkP4huY8jbx1ef0/eP9Qky+XL8nv3ui0sfxH9I/CH9s3WW/as+lbAb/gRqFFYXHhl828zTd+svyp5KeJLbFb2rfabd2/DbtNtO3+dtftR4sUi7KL+ncs3NGwk7GzYOe7XSt2XS+2KS7fTdwt3d1b4l/StEdvz7Y9X0rjS++VuZfV7VXfu2nvh338fV373fbXlmuUF5Z/PiA80FPhXdFQaVBZfBB7MP3g80Nhh9p+Zv5cdVjtcOHhr0dER3qPBh1trbKvqqpWr95aA9dIa4aPLT3WcdzjeFOtWW1FHb2u8AQ4IT3x4pfoX+6f9DvZcop5qva0/um99dT6ggaoIathtDG+sbcpsqnzjO+Zlman5vpfzX89clb7bNk55XNbzxPP552fuJB9Yeyi+OLIpbhL/S0rWh5djrh8t3Vxa/sVvyvXrnpdvdzGartwzfna2euO18/cYN5ovGl3s+GW7a3632x/q2+3a2+4bX+7qcOho7lzQef5LteuS3c87ly9y7l7896ie533Q+/3dC/t7u3h9ww9SHrw+mH6w/FH6x5jHhc8UXhS/FT9aeXvxr/X9dr1nuvz6Lv1LPjZo35e/8s/Uv/4MpD3nPK8eFBrsGrIaujssNdwx4slLwZeil+Oj+T/qfjn3ldGr07/5fbXrdGI0YHXktcTbza/VX175J3Nu5axwLGn75Pfj38o+Kj68egn5qe2z+GfB8czvuC+lHw1/tr8ze/b44nkiQkxV8KdGgVQiMOxsQC8OQIAJRIAKjJDEJdMz9NTBk1/A0wR+E88PXNPmR0AtUiYHIvYFwE4gbjBOkQbiZMjUYgbgK2tZT4z+07N6ZOGRb5YDnhM0oMdKyzAP2x6hv+u739GMKlqA/4Z/wXq2wfnVkO7QAAAAIplWElmTU0AKgAAAAgABAEaAAUAAAABAAAAPgEbAAUAAAABAAAARgEoAAMAAAABAAIAAIdpAAQAAAABAAAATgAAAAAAAACQAAAAAQAAAJAAAAABAAOShgAHAAAAEgAAAHigAgAEAAAAAQAAAFCgAwAEAAAAAQAAAGoAAAAAQVNDSUkAAABTY3JlZW5zaG90nAwO8wAAAAlwSFlzAAAWJQAAFiUBSVIk8AAAAdVpVFh0WE1MOmNvbS5hZG9iZS54bXAAAAAAADx4OnhtcG1ldGEgeG1sbnM6eD0iYWRvYmU6bnM6bWV0YS8iIHg6eG1wdGs9IlhNUCBDb3JlIDYuMC4wIj4KICAgPHJkZjpSREYgeG1sbnM6cmRmPSJodHRwOi8vd3d3LnczLm9yZy8xOTk5LzAyLzIyLXJkZi1zeW50YXgtbnMjIj4KICAgICAgPHJkZjpEZXNjcmlwdGlvbiByZGY6YWJvdXQ9IiIKICAgICAgICAgICAgeG1sbnM6ZXhpZj0iaHR0cDovL25zLmFkb2JlLmNvbS9leGlmLzEuMC8iPgogICAgICAgICA8ZXhpZjpQaXhlbFlEaW1lbnNpb24+MTA2PC9leGlmOlBpeGVsWURpbWVuc2lvbj4KICAgICAgICAgPGV4aWY6UGl4ZWxYRGltZW5zaW9uPjgwPC9leGlmOlBpeGVsWERpbWVuc2lvbj4KICAgICAgICAgPGV4aWY6VXNlckNvbW1lbnQ+U2NyZWVuc2hvdDwvZXhpZjpVc2VyQ29tbWVudD4KICAgICAgPC9yZGY6RGVzY3JpcHRpb24+CiAgIDwvcmRmOlJERj4KPC94OnhtcG1ldGE+Ck12xmUAAAAcaURPVAAAAAIAAAAAAAAANQAAACgAAAA1AAAANQAABPlbO83JAAAExUlEQVR4AeyaS0gVYRTHT2sfu4qyFiZkFlmQZQaCRbdCSLSiEoUyxawWPUxbeaXbzptpi0pNrchLWZpW5CIXBoYW1SKjh4GtelDLHuua/8TEnblzx+8xM7cL38BlZr6Z8z1+3znfd86ZOydn7rrfpA5hAnMUQGF2uqACKMePFEAFUJKApLjSQAVQkoCkuNJABVCSgKS40kAFUJKApLjSQAVQkoCkuNJABVCSgKS40kAFUJKApLjSwGQGmJaeSkuXZdKyFVmE67T0FMpenhUzpOdPpvSyd69n6MunbzT9dibmnUQV+KqBgFS0uYDWFuRS3vpcWrhovvC4ARW/sYeTCQXqC8DtOwK0aWsBbdyyQRiYk+Dnj181kBMUuTJMuPbz8AwgtK2iqpQqDpTq5unXoHSQvcP0/Olfs/e6XdcBJgqcFRTMOxzq9Ny8XQWYl59LobP1UmubFYTsfaR3iDrOR+jH95+yVdnKuwIQWhcKn/BsjbPtOUch1kVo49joBIcU26vSALNzsqitK/hfaV28oXe092na2BfvsVC5FMCSnQHdZIVaTpAQ1sbjB0OumbQwwGSEZ8zZ9JsZqik/5QpEIYChcD2V7AoY/UnKMyBCE2X9Rm6AFVVl1BA8mJTQrJ12QxO5ACaz2VrhGfeyEJkBYrftH7lgtCt0fv/2Az2bnNLXnuk3H/QzXKDs5UsoY/F8PZGwNGeJUN0yQvcGRinY0CpUBRNADLL/wQUhVwXQ+nqGNB9skmnRRoLh0LFK2q7t8H4e8BMjV4a4m2QC2NYZ5HaSXzx9RZfargvHpND49svNtCBjHvegRAX2FB/hDv1mBbgxsEF3lFk79fPHLw1cn9BsWtuA5vfcbCG/zBo+Yk15o7UbjveOAHlNF+baVN/6bxYhj/wfykWToKjj1shF3zSR15QdAdYdraQ6bT1iOQCpem+jaZ17PDVIqWkpunjwZCvdGxxlqSrmHSQpujVN9ONA0qG4cL9pHE7txgWImR8Zv8qUy7uvgWnRFuHojId10I+0TeRY7Wmnvjg+O6NlefzaWHhi5rgAWbXPTvMMEtEayGsaRh3GGbvzyPg149bTM48W2gJk1T584NldfNikedEjw6CxCekpdxdSSX5qIeuE2wJkjThqtDXPr9Q5JsZPLcSkFxfui9YH22tbgN03WvSvZrYSUYXY9u/eHqX7d8Q2h6iqmC9ZlxbmCh1eZPELYwCKzDLWjODJc55kfO3G13MzTGvyV9o9crUson2cCp/pcKwzBqBMtkXGVXHspeUhJhm+oeEiWR67dstixjEA27uaqShQINQJnt1LqIEoIYR6Pf0tnkOczYxjAI6/HGDy/aLGYro8XhvyzZT9iJdnsyoTQDdSVjxOqIm84A1cLliNV2sigoQmLYqKd5gAWqOHeEJO5bIRh1PdTs+wO1dWl7lu0sgqVe9tiNu0CaAbLsJsDcbtiQsPoI2N2ucGt0I+a3LErosmgA1Ndfp/Wexe5ClbnbmN53XX3wVIBAPQSJF8IsDBv2VJsJoAuuVfFa7aZQrvMBjRTIwsXbg8WNvx2cD4H6K1TngP+O8h3BZEVjizHp4AtIZ40GzMJk/HWAeQ6Pc8AWgNxJFQwN/ceLO9iYbD0v4fAAAA///PjqxiAAAE1UlEQVTtmltIVEEYxz+f096yMl9S8FJkD9lFIchgCwpDS8rQiFLK6qHbbj65kr6Vtx5KqVaoVtCwDAW7GCkUWlRQCYZB9VJGPXp5rvM/Nds5Z8/uztmZs+4uZ2CZM3Pmm/nmd7755rYp+cs2/aZ/wdd7mTZsXseSUcdD90aowd0akE9bmkrP3/dTbeUFevPqQyA/GR5S7AA4PfWZDuw+pePT3HJe+TgFav7c7LzuXSInbAEIILu2HqaZbz8DbAoVeDd7L1FP9wO63NwVyE/0Bx1AWEnpPpeUPnV1+Knril9XF3MRyTSUdQDrTldT3ZlqXaejTcD6YIXakJufTX3DVwlDuLaynqY/fta+TshnHcASVzG1X/dK68jZY000OjKuq8/TUEdVR8sIfrL2YL0KU1cgwRI6gMxPyeqDmRWi7rvD1ygnPyspIOoAonPvvj5CJC14leXMoLKs0QYsawBx5ar0mEBEezl5q2lj0XrKyFyu/nLXZBHyEd68/Lu0Gn0yrjxPWnItQQCZo9d2WOQZ/g5LGu2MjPqgvE+ZlZklet1tlhTn0QltVB0pU10Gg8UjB51Hn0yok6BRb6N8EECZEwlrLJS/Q6fQHnwilAZEo89kdViJYWUAt6fCFbAyK/KsLHTaur6CJU3jIIBspjQtLZA52D9CXs//3Ym2KvjeE2cPqbugnu4B5cv3RD25yDSAsZEJOnPsolbVoOcggCjx8MVt1T8FlRbMgI/xetpCwgHIkh3Fiq8qoDs3B2jovt53hmseH76p5RzlrskOV8zSOzP/bazAFGDVkXLyeI8by0pJhxrOxsoxDNPSUrn8Ioarx1tnrEI4jeGLYRwumAKE8sPPb4WTE3oHpbClM+5UrFZautelDP1qdVa1KhupvPFAJFR5U4AoLHNbF6pxzHCd7X4aezoR8Utr67ATHGuHd7sZEqDdVsgUZTHWYvi9nnivZv2Y+aXGKzPSKW9ttjqbFm4pCKzjmJwd8dtXk1RT6eGqOiRASMfCCrm0jHEhXuuDWmEBwgqxY0hNWxLjLixec1asLyJAFJC5rlo8LPwtG88xI0mGtUAmzDb/LJ2ssdkZZqS+cgHEItXXdymph/Knj19o/66TkXgFvecCCKk9ykl1k3JinYxhfm5BhRfp4MCs79wAIZyss7LZwa8ZLLM8SwCTESLPftcMHMuzDFB7jscqSdSYd7sWrn+WAaIyQOy43ijlEj6ccna+k3W9GhVA1rFE9Ymiw5b1H7EQQFSQSAttzLYN51ulnHqj7wjCAFEJDkI7bjTG9ToR6zzAk30XLQUgIMIvYkhvcxUhGVchmh0GbwekAWQNwhqbW922XAmwNnhjHAw0uFuCbgR55XnKSQfIGsXOBRdFuPuNdQC4zvY7MfkrnW0AGTSArK4pV+9/WZ5dMW7R/L6BmIBjfbAdIGsIZ4u4rNq+s1iqVcLanj0eV//9EOkCiOkiM44ZQK3SgAlfievLjMwVylVkFtcM/uP7L9Wf4dh/euqLammLAU3bl0UBqFWAPWMWz1X+cGQW5mYXpC8/zNqJJi9uAEajfDzIOAAFv4ID0AEoSEBQ3LFAB6AgAUFxxwIdgIIEBMUdC3QAChIQFHcs0AEoSEBQ3LFAB6AgAUFxxwIdgIIEBMUdCxQE+AcwLDNFXH0QSQAAAABJRU5ErkJggg==;" vertex="1" parent="1">
          <mxGeometry x="408" y="421" width="35.47" height="47" as="geometry" />
        </mxCell>
        <mxCell id="bD4m_cxbD3lMt66joX2l-23" value="Send Email" style="whiteSpace=wrap;html=1;verticalAlign=top;dashed=0;" vertex="1" parent="1">
          <mxGeometry x="622.6" y="372.5" width="77.4" height="25" as="geometry" />
        </mxCell>
        <mxCell id="bD4m_cxbD3lMt66joX2l-25" value="Send SMS" style="whiteSpace=wrap;html=1;verticalAlign=top;dashed=0;" vertex="1" parent="1">
          <mxGeometry x="622.6" y="432" width="77.4" height="25" as="geometry" />
        </mxCell>
        <mxCell id="bD4m_cxbD3lMt66joX2l-26" value="Send Chat in Channel" style="whiteSpace=wrap;html=1;verticalAlign=top;dashed=0;" vertex="1" parent="1">
          <mxGeometry x="622.6" y="495.75" width="77.4" height="36.5" as="geometry" />
        </mxCell>
      </root>
    </mxGraphModel>
  </diagram>
</mxfile>
